<svg width="49" height="50" viewBox="0 0 49 50" fill="none" xmlns="http://www.w3.org/2000/svg">
<path d="M14.8641 33.5748C19.5648 33.5748 23.3889 29.7507 23.3889 25.0499C23.3889 20.3492 19.5648 16.5251 14.8641 16.5251C10.1633 16.5251 6.33919 20.3492 6.33919 25.0499C6.33919 29.7507 10.1633 33.5748 14.8641 33.5748ZM8.89799 26.2678H10.9929C11.0989 27.6158 11.4578 29.0396 12.1857 30.491C10.5247 29.6693 9.27796 28.1322 8.89799 26.2678ZM16.2843 26.2678C16.1457 27.5454 15.7312 28.9014 14.8641 30.2831C13.997 28.9014 13.5824 27.5455 13.4438 26.2678H16.2843ZM13.4912 23.8321C13.7365 22.2313 14.3332 20.8814 14.8641 19.9392C15.3949 20.8814 15.9917 22.2313 16.2369 23.8321H13.4912ZM17.5425 30.491C18.2704 29.0396 18.6292 27.6158 18.7352 26.2678H20.8301C20.4502 28.1322 19.2035 29.6693 17.5425 30.491ZM20.8301 23.8321H18.6735C18.4544 22.1437 17.9104 20.6593 17.353 19.5059C19.1122 20.2993 20.4352 21.895 20.8301 23.8321ZM12.3752 19.5059C11.8178 20.6593 11.2738 22.1437 11.0547 23.8321H8.89799C9.29294 21.895 10.6159 20.2993 12.3752 19.5059ZM7.55703 40.8818H22.1711V43.3175H7.55703V40.8818ZM38.3598 18.6039L37.142 17.3861L38.8641 15.6639L40.082 16.8818L38.3598 18.6039ZM36.4283 13.2284L37.6462 14.4462L35.9241 16.1683L34.7063 14.9504L36.4283 13.2284ZM33.9926 10.7927L35.2105 12.0106L33.4885 13.7326L32.2706 12.5147L33.9926 10.7927ZM44.5965 17.7429L48.25 14.0894L43.3786 9.21805H42.8743C41.0987 9.21805 39.2208 7.34014 39.2208 5.56453V5.06023L34.3495 0.188873L27.3993 7.13908L29.1214 8.86122L34.3495 3.63316L36.8136 6.09746C37.1039 8.84588 39.593 11.3351 42.3415 11.6252L44.8057 14.0894L29.4781 29.417V11.6537C29.4781 10.3104 28.3857 9.21805 27.0424 9.21805H0.25V49.4067H27.0424C28.3857 49.4067 29.4781 48.3143 29.4781 46.971V40.1683L48.25 21.3964L44.5965 17.7429ZM27.0424 46.971H2.68568V11.6537H27.0424V46.971ZM29.4781 32.8613L42.8743 19.4651L44.8057 21.3964L29.4781 36.724V32.8613ZM31.557 8.35704L32.7748 9.57487L31.0528 11.2969L29.8349 10.0791L31.557 8.35704Z" fill="#676B7E"/>
</svg>
